<?xml version="1.0" encoding="UTF-8" standalone="no"?>
<!DOCTYPE svg PUBLIC "-//W3C//DTD SVG 1.1//EN"
 "http://www.w3.org/Graphics/SVG/1.1/DTD/svg11.dtd">
<!-- Generated by graphviz version 12.1.0 (20240811.2233)
 -->
<!-- Title: G Pages: 1 -->
<svg width="397pt" height="98pt"
 viewBox="0.00 0.00 397.00 98.00" xmlns="http://www.w3.org/2000/svg" xmlns:xlink="http://www.w3.org/1999/xlink">
<g id="graph0" class="graph" transform="scale(1 1) rotate(0) translate(4 94)">
<title>G</title>
<polygon fill="white" stroke="none" points="-4,4 -4,-94 393,-94 393,4 -4,4"/>
<!-- local_file.random_code -->
<g id="node1" class="node">
<title>local_file.random_code</title>
<polygon fill="none" stroke="black" points="385.25,-90 229.75,-90 229.75,-54 385.25,-54 385.25,-90"/>
<text text-anchor="middle" x="307.5" y="-66.2" font-family="sans-serif" font-size="14.00">local_file.random_code</text>
</g>
<!-- random_string.random_code -->
<g id="node3" class="node">
<title>random_string.random_code</title>
<polygon fill="none" stroke="black" points="190,-63 0,-63 0,-27 190,-27 190,-63"/>
<text text-anchor="middle" x="95" y="-39.2" font-family="sans-serif" font-size="14.00">random_string.random_code</text>
</g>
<!-- local_file.random_code&#45;&gt;random_string.random_code -->
<g id="edge1" class="edge">
<title>local_file.random_code&#45;&gt;random_string.random_code</title>
<path fill="none" stroke="black" d="M229.31,-62.1C220.3,-60.94 211,-59.75 201.69,-58.56"/>
<polygon fill="black" stroke="black" points="202.22,-55.1 191.85,-57.29 201.32,-62.04 202.22,-55.1"/>
</g>
<!-- local_file.random_code2 -->
<g id="node2" class="node">
<title>local_file.random_code2</title>
<polygon fill="none" stroke="black" points="389,-36 226,-36 226,0 389,0 389,-36"/>
<text text-anchor="middle" x="307.5" y="-12.2" font-family="sans-serif" font-size="14.00">local_file.random_code2</text>
</g>
<!-- local_file.random_code2&#45;&gt;random_string.random_code -->
<g id="edge2" class="edge">
<title>local_file.random_code2&#45;&gt;random_string.random_code</title>
<path fill="none" stroke="black" d="M225.72,-28.36C217.84,-29.37 209.76,-30.41 201.69,-31.44"/>
<polygon fill="black" stroke="black" points="201.26,-27.97 191.78,-32.71 202.15,-34.91 201.26,-27.97"/>
</g>
</g>
</svg>
